<?xml version="1.0" encoding="UTF-8" standalone="no"?>
<!-- Created with Inkscape (http://www.inkscape.org/) -->

<svg
   xmlns:dc="http://purl.org/dc/elements/1.1/"
   xmlns:cc="http://creativecommons.org/ns#"
   xmlns:rdf="http://www.w3.org/1999/02/22-rdf-syntax-ns#"
   xmlns:svg="http://www.w3.org/2000/svg"
   xmlns="http://www.w3.org/2000/svg"
   xmlns:sodipodi="http://sodipodi.sourceforge.net/DTD/sodipodi-0.dtd"
   xmlns:inkscape="http://www.inkscape.org/namespaces/inkscape"
   width="210mm"
   height="292mm"
   viewBox="0 0 210 292"
   version="1.1"
   id="svg8"
   sodipodi:docname="level1.svg"
   inkscape:version="0.92.4 5da689c313, 2019-01-14">
  <defs
     id="defs2">
    <inkscape:perspective
       sodipodi:type="inkscape:persp3d"
       inkscape:vp_x="0 : 146 : 1"
       inkscape:vp_y="0 : 1000 : 0"
       inkscape:vp_z="210 : 146 : 1"
       inkscape:persp3d-origin="105 : 97.333333 : 1"
       id="perspective3736" />
  </defs>
  <sodipodi:namedview
     id="base"
     pagecolor="#ffffff"
     bordercolor="#666666"
     borderopacity="1.0"
     inkscape:pageopacity="0.0"
     inkscape:pageshadow="2"
     inkscape:zoom="0.020095544"
     inkscape:cx="12107.947"
     inkscape:cy="-2060.2891"
     inkscape:document-units="mm"
     inkscape:current-layer="layer1"
     showgrid="false"
     inkscape:window-width="1920"
     inkscape:window-height="1052"
     inkscape:window-x="0"
     inkscape:window-y="0"
     inkscape:window-maximized="0"
     inkscape:snap-bbox="true"
     inkscape:bbox-nodes="true"
     inkscape:snap-page="true"
     inkscape:snap-bbox-edge-midpoints="true"
     inkscape:snap-midpoints="true"
     showguides="true"
     inkscape:guide-bbox="true"
     inkscape:snap-smooth-nodes="true"
     inkscape:snap-global="false" />
  <metadata
     id="metadata5">
    <rdf:RDF>
      <cc:Work
         rdf:about="">
        <dc:format>image/svg+xml</dc:format>
        <dc:type
           rdf:resource="http://purl.org/dc/dcmitype/StillImage" />
        <dc:title />
      </cc:Work>
    </rdf:RDF>
  </metadata>
  <g
     inkscape:label="Layer 1"
     inkscape:groupmode="layer"
     id="layer1"
     transform="translate(0,-5)">
    <g
       id="g3738"
       style="opacity:0.46700003;fill:#ff0000;fill-opacity:1;stroke:none;stroke-width:6;stroke-linecap:round;stroke-linejoin:round;stroke-miterlimit:4;stroke-dasharray:none;stroke-opacity:0.34782613;paint-order:normal"
       transform="translate(98.532335,29.943264)" />
    <path
       style="fill:#b5ffff;fill-opacity:1;stroke:#000000;stroke-width:0.26458332px;stroke-linecap:butt;stroke-linejoin:miter;stroke-opacity:1"
       d="M -195.50912,520.43901 1061.3351,483.19921 2718.5077,222.52031 3714.6732,697.32819 5399.7756,343.54981 4049.8315,846.28752 2681.2679,632.1585 1191.6745,1237.3057 111.71949,809.04769 Z"
       id="path827"
       inkscape:connector-curvature="0"
       notphysical="true" />
    <path
       sodipodi:nodetypes="sssssssssss"
       inkscape:connector-curvature="0"
       id="path71"
       d="m 1630.4005,979.91589 c -44.3074,32.97291 -92.3044,-76.05042 -147.5308,-75.41798 -55.2264,0.63244 -100.7141,110.72629 -145.7649,78.77673 -45.0509,-31.94961 43.8046,-111.28754 26.1372,-163.61554 -17.6674,-52.328 -136.4294,-61.56852 -119.965,-114.28738 16.4644,-52.71887 119.3772,7.27093 163.6845,-25.70199 44.3074,-32.97292 16.3962,-148.77777 71.6226,-149.41021 55.2264,-0.63244 29.9744,115.78123 75.0253,147.73084 45.0508,31.9496 146.5627,-30.38119 164.2301,21.94679 17.6674,52.32799 -100.8518,64.28581 -117.3163,117.00467 -16.4644,52.71886 74.1847,130.00116 29.8773,162.97407 z"
       inkscape:transform-center-y="-22.984706"
       inkscape:transform-center-x="0.88291074"
       style="opacity:1;fill:#d400aa;fill-opacity:1;stroke:none;stroke-width:1.58749998;stroke-linecap:round;stroke-linejoin:round;stroke-miterlimit:4;stroke-dasharray:none;stroke-opacity:0.34782613;paint-order:normal"
       rotate="0.3" />
    <path
       style="opacity:1;fill:#ffaaee;fill-opacity:1;stroke:none;stroke-width:1.58749998;stroke-linecap:round;stroke-linejoin:round;stroke-miterlimit:4;stroke-dasharray:none;stroke-opacity:0.34782613;paint-order:normal"
       d="m -2e-4,904.55919 c 0,0 541.34212,24.64171 1008.5952,-16.49972 181.4113,-15.97319 322.3028,-131.31527 459.8251,-128.32924 167.0724,3.62765 420.0208,155.18554 628.1901,189.71109 64.7118,10.73265 431.3374,-146.03278 859.0104,-104.78963 222.2348,21.43147 443.9637,259.43511 684.471,255.71551 487.2205,-7.5353 919.6697,-189.37787 1256.7429,-131.85762 252.8662,43.15062 379.0319,522.57702 379.0319,522.57702 V 1984.43 L -2e-4,1397.9026 Z"
       id="rect3810"
       inkscape:connector-curvature="0"
       sodipodi:nodetypes="csssssscccc" />
    <path
       style="opacity:1;fill:#501644;fill-opacity:1;stroke:none;stroke-width:1.58749998;stroke-linecap:round;stroke-linejoin:round;stroke-miterlimit:4;stroke-dasharray:none;stroke-opacity:0.34782613;paint-order:normal"
       d="M 0,5 C 86.532422,431.52821 358.36793,822.8993 971.20573,931.0175 H 0 Z"
       id="rect3807"
       inkscape:connector-curvature="0"
       sodipodi:nodetypes="cccc" />
    <path
       style="opacity:1;fill:#ff0000;fill-opacity:1;stroke:none;stroke-width:1.58749998;stroke-linecap:round;stroke-linejoin:round;stroke-miterlimit:4;stroke-dasharray:none;stroke-opacity:0.34782613;paint-order:normal"
       inkscape:transform-center-x="0.88291074"
       inkscape:transform-center-y="-22.984706"
       d="m 2684.4146,638.12098 c -44.3073,32.97291 -92.3043,-76.05042 -147.5307,-75.41798 -55.2264,0.63244 -100.7142,110.72634 -145.765,78.77673 -45.0508,-31.94961 43.8046,-111.28754 26.1372,-163.61554 -17.6673,-52.328 -136.4293,-61.56852 -119.9649,-114.28738 16.4644,-52.71887 119.3771,7.27093 163.6844,-25.70199 44.3074,-32.97292 16.3962,-148.77777 71.6226,-149.41021 55.2264,-0.63243 29.9745,115.78123 75.0253,147.73084 45.0508,31.9496 146.5627,-30.38119 164.2301,21.94679 17.6674,52.32799 -100.8518,64.28581 -117.3162,117.00467 -16.4644,52.71886 74.1846,130.00116 29.8772,162.97407 z"
       id="path68"
       inkscape:connector-curvature="0"
       sodipodi:nodetypes="sssssssssss"
       rotate="-0.5" />
    <path
       style="fill:#ff0000;stroke:#000000;stroke-width:0.26458332px;stroke-linecap:butt;stroke-linejoin:miter;stroke-opacity:1"
       d="M 5275.8662,1984.43 5255.4713,-647.96076 C 5047.3459,1021.2328 4679.6413,1096.6053 3817.0829,1409.54 Z"
       id="path822"
       inkscape:connector-curvature="0"
       sodipodi:nodetypes="cccc" />
    <path
       sodipodi:nodetypes="sssssssssss"
       inkscape:connector-curvature="0"
       id="path824"
       d="m 2266.9749,785.7728 c -44.3074,32.97289 -92.3044,-76.05042 -147.5308,-75.41798 -55.2264,0.63244 -100.7141,110.72637 -145.765,78.77673 -45.0508,-31.94961 43.8047,-111.28754 26.1373,-163.61554 -17.6674,-52.328 -136.4294,-61.56852 -119.965,-114.28738 16.4644,-52.71887 119.3771,7.27093 163.6845,-25.70199 44.3073,-32.97292 16.3961,-148.77777 71.6225,-149.41021 55.2264,-0.63244 29.9745,115.78123 75.0254,147.73084 45.0508,31.9496 146.5627,-30.38119 164.2301,21.94679 17.6674,52.32799 -100.8518,64.28581 -117.3163,117.00467 -16.4644,52.71886 74.1847,130.00116 29.8773,162.97407 z"
       inkscape:transform-center-y="-22.984706"
       inkscape:transform-center-x="0.88291074"
       style="opacity:1;fill:#b3b3b3;fill-opacity:1;stroke:none;stroke-width:1.58749998;stroke-linecap:round;stroke-linejoin:round;stroke-miterlimit:4;stroke-dasharray:none;stroke-opacity:0.34782613;paint-order:normal"
       rotate="0.5" />
    <path
       sodipodi:nodetypes="sssssssssss"
       inkscape:connector-curvature="0"
       id="path826"
       d="m 2930.3093,292.34501 c -44.3073,32.97291 -92.3043,-76.05042 -147.5307,-75.41798 -55.2264,0.63244 -100.7142,110.72634 -145.765,78.77673 -45.0508,-31.94961 43.8046,-111.28754 26.1372,-163.61554 -17.6673,-52.327995 -136.4293,-61.568515 -119.9649,-114.287374 16.4644,-52.71887 119.3771,7.27093 163.6844,-25.7019903 44.3074,-32.9729197 16.3962,-148.7777657 71.6226,-149.4102057 55.2264,-0.63243 29.9745,115.781226 75.0253,147.7308357 45.0508,31.9496003 146.5627,-30.3811897 164.2301,21.9467903 17.6674,52.327989 -100.8518,64.285809 -117.3162,117.004664 -16.4644,52.71886 74.1846,130.00116 29.8772,162.97407 z"
       inkscape:transform-center-y="-22.984706"
       inkscape:transform-center-x="0.88291074"
       style="opacity:1;fill:#ff0000;fill-opacity:1;stroke:none;stroke-width:1.58749998;stroke-linecap:round;stroke-linejoin:round;stroke-miterlimit:4;stroke-dasharray:none;stroke-opacity:0.34782613;paint-order:normal"
       rotate="0.5" />
    <path
       style="opacity:1;fill:#ff0000;fill-opacity:1;stroke:none;stroke-width:1.58749998;stroke-linecap:round;stroke-linejoin:round;stroke-miterlimit:4;stroke-dasharray:none;stroke-opacity:0.34782613;paint-order:normal"
       inkscape:transform-center-x="0.88291074"
       inkscape:transform-center-y="-22.984706"
       d="m 3330.6375,152.69564 c -44.3073,32.97291 -92.3043,-76.050422 -147.5307,-75.417982 -55.2264,0.63244 -100.7142,110.726342 -145.765,78.776732 -45.0508,-31.94961 43.8046,-111.287539 26.1372,-163.6155392 -17.6673,-52.3279998 -136.4293,-61.5685198 -119.9649,-114.2873808 16.4644,-52.71887 119.3771,7.27093 163.6844,-25.70199 44.3074,-32.97292 16.3962,-148.77777 71.6226,-149.41021 55.2264,-0.63243 29.9745,115.78123 75.0253,147.73084 45.0508,31.9496 146.5627,-30.38119 164.2301,21.94679 17.6674,52.327991 -100.8518,64.285811 -117.3162,117.004671 -16.4644,52.71886 74.1846,130.001159 29.8772,162.974069 z"
       id="path828"
       inkscape:connector-curvature="0"
       sodipodi:nodetypes="sssssssssss"
       rotate="-0.5" />
    <path
       style="opacity:1;fill:#800080;fill-opacity:1;stroke:none;stroke-width:1.58749998;stroke-linecap:round;stroke-linejoin:round;stroke-miterlimit:4;stroke-dasharray:none;stroke-opacity:0.34782613;paint-order:normal"
       inkscape:transform-center-x="-2.284949e-05"
       inkscape:transform-center-y="-5.9268059e-06"
       d="m 1032.5712,697.80097 c -39.27973,29.57532 -71.91329,-103.95269 -118.4098,-87.96299 -46.49651,15.9897 9.89794,141.34656 -39.26396,142.18546 -49.1619,0.8389 2.9228,-126.36905 -44.09218,-140.76308 -47.01498,-14.39403 -75.07384,120.16964 -115.33974,91.95168 -40.2659,-28.21796 76.64246,-100.51674 47.06714,-139.79646 -29.57532,-39.27972 -131.36994,53.09198 -147.35964,6.59547 -15.9897,-46.49651 121.08731,-36.27044 120.24841,-85.43234 -0.8389,-49.1619 -137.48721,-34.26499 -123.09318,-81.27997 14.39403,-47.01499 119.28092,41.82993 147.49888,1.56402 28.21796,-40.2659 -91.08903,-108.53391 -51.80931,-138.10923 39.27972,-29.57532 71.91328,103.95268 118.40979,87.96298 46.49651,-15.9897 -9.89793,-141.34657 39.26397,-142.18546 49.1619,-0.83889 -2.9228,126.36905 44.09218,140.76308 47.01498,14.39403 75.07383,-120.16963 115.33974,-91.95167 40.2659,28.21795 -76.64246,100.51673 -47.06714,139.79646 29.57534,39.27971 131.36994,-53.09198 147.35964,-6.59548 15.9897,46.4965 -121.0873,36.27045 -120.2484,85.43234 0.8389,49.1619 137.4872,34.265 123.0932,81.27998 -14.394,47.01497 -119.281,-41.82993 -147.49891,-1.56403 -28.21796,40.2659 91.08911,108.53392 51.80931,138.10924 z"
       id="path830"
       inkscape:connector-curvature="0"
       sodipodi:nodetypes="sssssssssssssssssssss"
       rotate="2" />
    <path
       style="fill:#008000;stroke:#000000;stroke-width:0.26458332px;stroke-linecap:butt;stroke-linejoin:miter;stroke-opacity:1"
       d="m 4516.0302,315.10362 c 105.5215,45.92143 56.8819,268.07215 -29.624,343.96878 -129.6151,113.71881 -494.0116,147.87954 -516.776,-23.04097 -16.6518,-125.02621 254.413,-46.86785 360.4267,-115.20487 77.6975,-50.08426 101.2109,-242.61029 185.9733,-205.72294 z"
       id="path835"
       inkscape:connector-curvature="0"
       sodipodi:nodetypes="sssss"
       rotate="0.5" />
    <path
       style="opacity:1;fill:#ff00ff;fill-opacity:1;stroke:none;stroke-width:1.58749998;stroke-linecap:round;stroke-linejoin:round;stroke-miterlimit:4;stroke-dasharray:none;stroke-opacity:0.34782613;paint-order:normal"
       d="m 4067.6328,-236.70077 h 67.4971 v 66.3335 h -67.4971 z"
       id="rect19"
       spawn="true"
       inkscape:connector-curvature="0" />
    <path
       style="fill:#2b0000;stroke:#000000;stroke-width:0.26458332px;stroke-linecap:butt;stroke-linejoin:miter;stroke-opacity:1"
       d="m 3602.9537,478.54418 c 0,0 -176.8893,-74.47968 -162.9243,79.13465 13.965,153.6143 344.4684,372.39831 311.8837,218.78401 -32.5848,-153.6143 -148.9594,-297.91866 -148.9594,-297.91866 z"
       id="path829"
       inkscape:connector-curvature="0" />
    <path
       rotate="-0.5"
       sodipodi:nodetypes="sssssssssss"
       inkscape:connector-curvature="0"
       id="path831"
       d="m 3330.6375,152.69564 c -44.3073,32.97291 -92.3043,-76.050422 -147.5307,-75.417982 -55.2264,0.63244 -100.7142,110.726342 -145.765,78.776732 -45.0508,-31.94961 43.8046,-111.287539 26.1372,-163.6155392 -17.6673,-52.3279998 -136.4293,-61.5685198 -119.9649,-114.2873808 16.4644,-52.71887 119.3771,7.27093 163.6844,-25.70199 44.3074,-32.97292 16.3962,-148.77777 71.6226,-149.41021 55.2264,-0.63243 29.9745,115.78123 75.0253,147.73084 45.0508,31.9496 146.5627,-30.38119 164.2301,21.94679 17.6674,52.327991 -100.8518,64.285811 -117.3162,117.004671 -16.4644,52.71886 74.1846,130.001159 29.8772,162.974069 z"
       inkscape:transform-center-y="-22.984706"
       inkscape:transform-center-x="0.88291074"
       style="opacity:1;fill:#ff0000;fill-opacity:1;stroke:none;stroke-width:1.58749998;stroke-linecap:round;stroke-linejoin:round;stroke-miterlimit:4;stroke-dasharray:none;stroke-opacity:0.34782613;paint-order:normal" />
  </g>
</svg>
