<?xml version="1.0" encoding="UTF-8" standalone="no"?>
<!-- Created with Inkscape (http://www.inkscape.org/) -->

<svg
   xmlns:dc="http://purl.org/dc/elements/1.1/"
   xmlns:cc="http://creativecommons.org/ns#"
   xmlns:rdf="http://www.w3.org/1999/02/22-rdf-syntax-ns#"
   xmlns:svg="http://www.w3.org/2000/svg"
   xmlns="http://www.w3.org/2000/svg"
   xmlns:xlink="http://www.w3.org/1999/xlink"
   xmlns:sodipodi="http://sodipodi.sourceforge.net/DTD/sodipodi-0.dtd"
   xmlns:inkscape="http://www.inkscape.org/namespaces/inkscape"
   width="210mm"
   height="292mm"
   viewBox="0 0 210 292"
   version="1.1"
   id="svg8"
   sodipodi:docname="level1.svg"
   inkscape:version="0.92.4 5da689c313, 2019-01-14">
  <defs
     id="defs2">
    <inkscape:perspective
       sodipodi:type="inkscape:persp3d"
       inkscape:vp_x="0 : 146 : 1"
       inkscape:vp_y="0 : 1000 : 0"
       inkscape:vp_z="210 : 146 : 1"
       inkscape:persp3d-origin="105 : 97.333333 : 1"
       id="perspective3736" />
  </defs>
  <sodipodi:namedview
     id="base"
     pagecolor="#ffffff"
     bordercolor="#666666"
     borderopacity="1.0"
     inkscape:pageopacity="0.0"
     inkscape:pageshadow="2"
     inkscape:zoom="0.11313709"
     inkscape:cx="4299.7509"
     inkscape:cy="-546.42289"
     inkscape:document-units="mm"
     inkscape:current-layer="layer1"
     showgrid="false"
     inkscape:window-width="1366"
     inkscape:window-height="740"
     inkscape:window-x="0"
     inkscape:window-y="0"
     inkscape:window-maximized="0"
     inkscape:snap-bbox="true"
     inkscape:bbox-nodes="true"
     inkscape:snap-page="true"
     inkscape:snap-bbox-edge-midpoints="true"
     inkscape:snap-midpoints="true"
     showguides="true"
     inkscape:guide-bbox="true"
     inkscape:snap-smooth-nodes="true"
     inkscape:snap-global="false" />
  <metadata
     id="metadata5">
    <rdf:RDF>
      <cc:Work
         rdf:about="">
        <dc:format>image/svg+xml</dc:format>
        <dc:type
           rdf:resource="http://purl.org/dc/dcmitype/StillImage" />
        <dc:title />
      </cc:Work>
    </rdf:RDF>
  </metadata>
  <g
     inkscape:groupmode="layer"
     id="layer1"
     inkscape:label="Objects"
     style="opacity:1">
    <path
       sodipodi:nodetypes="cccccccccccc"
       inkscape:connector-curvature="0"
       id="path79"
       d="m 562.20429,603.71457 c 6.84877,25.65924 4.18411,76.29312 -10.77134,107.44092 l 106.33335,15.62006 c -12.12678,-30.29152 -2.7038,-82.75137 19.67429,-104.3195 -24.19239,10.64911 -35.28541,35.29748 -40.83963,69.5323 0.62336,-20.69491 0.10207,-40.36968 21.04192,-66.79018 -20.61767,12.43492 -36.73512,30.94633 -40.79933,65.73088 -4.75595,-20.83117 0.75519,-47.14964 7.11272,-71.08264 -14.14586,13.29165 -22.28789,45.34338 -24.25476,69.00058 -1.33289,-24.57735 -5.9427,-56.32401 -14.95419,-75.92961 4.66594,24.79508 -0.34866,48.08262 -4.6352,72.70536 2.94061,-29.42263 -3.94564,-56.50704 -17.90783,-81.90817 z"
       style="fill:#006a9c;fill-opacity:1;stroke:none;stroke-width:0.26458335px;stroke-linecap:butt;stroke-linejoin:miter;stroke-opacity:1" />
    <use
       id="use81"
       inkscape:spray-origin="#path79"
       xlink:href="#path79"
       x="0"
       y="0"
       width="100%"
       height="100%"
       transform="translate(-191.15844,-54.574798)" />
  </g>
  <g
     inkscape:groupmode="layer"
     id="background"
     inkscape:label="Background">
    <path
       inkscape:connector-curvature="0"
       id="path1353"
       d="m 1130.2993,947.32395 c -35.8531,0.0151 -65.0032,28.90659 -65.3376,64.75805 -18.8609,-33.24472 -55.2643,-50.07379 -82.41843,-42.15455 -34.09303,11.09321 -52.88843,47.57745 -42.12893,81.77725 -28.211,-25.7879 -68.0321,-30.5421 -91.4088,-14.6201 -28.99783,21.0861 -35.59887,61.595 -14.79535,90.7963 -0.0503,-0.04 -0.0993,-0.082 -0.15004,-0.1219 -29.2068,-21.2202 -70.086,-14.7458 -91.30609,14.461 -21.06275,29.0155 -14.82186,69.582 13.9881,90.925 -37.97992,-4.2878 -72.99558,15.2763 -82.54906,41.8977 -11.06557,34.1046 7.40628,70.7576 41.40233,82.1526 -37.44724,7.6924 -64.70225,37.0827 -65.56216,65.3671 0.0151,35.8531 28.90647,65.0031 64.75805,65.3375 -33.24497,18.8607 -50.07416,55.2644 -42.1548,82.4185 11.09372,34.0943 47.58026,52.8896 81.78089,42.1277 -25.78904,28.2113 -30.54549,68.0334 -14.62232,91.4115 21.08689,28.9977 61.59639,35.5976 90.79728,14.793 -15.8107,34.7997 -8.02919,74.1442 14.33933,91.4582 29.01567,21.0624 69.58214,14.8213 90.92484,-13.9888 -4.2877,37.9798 15.2764,72.9952 41.89763,82.5488 34.10433,11.0655 70.75703,-7.4059 82.15253,-41.4013 7.6926,37.4467 37.0828,64.7013 65.367,65.5614 35.8529,-0.015 65.0029,-28.9066 65.3373,-64.7581 18.8608,33.2447 55.2642,50.074 82.4184,42.1548 34.0943,-11.0938 52.8896,-47.5804 42.1277,-81.7809 28.2113,25.7889 68.0333,30.5454 91.4113,14.6223 28.9977,-21.0869 35.5977,-61.5964 14.7931,-90.7972 34.7998,15.8107 74.1444,8.0293 91.4584,-14.3392 21.0613,-29.0148 14.8211,-69.5795 -13.9869,-90.9227 0.059,0.023 0.1193,0.045 0.1788,0.068 34.3348,11.1559 71.2123,-7.6343 82.3681,-41.9692 11.0644,-34.1026 -7.4049,-70.7534 -41.3978,-82.1503 37.4463,-7.6946 64.6995,-37.0843 65.5589,-65.3683 -0.015,-35.8529 -28.9066,-65.0029 -64.7581,-65.3373 0.062,-0.016 0.1232,-0.034 0.1854,-0.05 34.3349,-11.1558 53.1252,-48.0334 41.9692,-82.3682 -11.0934,-34.0929 -47.5775,-52.8882 -81.7773,-42.1287 0.053,-0.035 0.1056,-0.069 0.1589,-0.1043 29.2068,-21.2201 35.6813,-62.0991 14.4612,-91.3059 -21.0856,-28.996 -61.5918,-35.5973 -90.7927,-14.7965 15.8079,-34.7998 8.0245,-74.1413 -14.3429,-91.4539 -29.0144,-21.0616 -69.5791,-14.822 -90.9227,13.9856 4.2803,-37.9818 -15.2782,-72.99316 -41.9013,-82.54689 -34.1028,-11.06443 -70.7536,7.40503 -82.1504,41.39799 -11.5404,-30.99918 -37.2279,-63.72503 -65.371,-65.55555 z"
       style="opacity:0.98000004;fill:#929dca;fill-opacity:1;stroke:none;stroke-width:1.32291651;stroke-linecap:round;stroke-linejoin:round;stroke-miterlimit:4;stroke-dasharray:none;stroke-opacity:1;paint-order:normal"
       sodipodi:nodetypes="ccccccccccccccccccccccccccccccccccccccccccccc" />
    <path
       sodipodi:nodetypes="ccccccccccccccccccccccccccccccccccccccccccccc"
       style="opacity:0.98000004;fill:#8dd9eb;fill-opacity:1;stroke:none;stroke-width:1.32291663;stroke-linecap:round;stroke-linejoin:round;stroke-miterlimit:4;stroke-dasharray:none;stroke-opacity:1;paint-order:normal"
       d="m 1782.9764,1175.5266 c -28.5313,0.012 -51.7285,23.0034 -51.9946,51.5334 -15.0092,-26.4556 -43.9784,-39.8479 -65.5872,-33.5459 -27.1307,8.8278 -42.0878,37.8614 -33.5256,65.077 -22.4498,-20.5216 -54.1388,-24.3049 -72.7416,-11.6344 -23.076,16.78 -28.329,49.0163 -11.7739,72.2542 -0.04,-0.032 -0.079,-0.065 -0.1194,-0.097 -23.2423,-16.8867 -55.7733,-11.7345 -72.6599,11.5078 -16.7614,23.0901 -11.795,55.3723 11.1315,72.3567 -30.2238,-3.4122 -58.0887,12.1566 -65.6912,33.3415 -8.8058,27.1399 5.8938,56.3077 32.9473,65.3757 -29.7999,6.1215 -51.489,29.5098 -52.1733,52.0181 0.012,28.5313 23.0033,51.7284 51.5334,51.9945 -26.4558,15.009 -39.8482,43.9785 -33.5461,65.5873 8.8282,27.1317 37.8636,42.0887 65.0799,33.5245 -20.5225,22.4501 -24.3076,54.1399 -11.6362,72.7438 16.7806,23.0759 49.0174,28.328 72.255,11.772 -12.5819,27.6931 -6.3895,59.0028 11.411,72.781 23.0902,16.7611 55.3723,11.7945 72.3565,-11.1321 -3.4121,30.2237 12.1567,58.0884 33.3415,65.691 27.1396,8.8058 56.3073,-5.8935 65.3756,-32.9465 6.1217,29.7995 29.5099,51.4883 52.018,52.1727 28.5312,-0.012 51.7283,-23.0034 51.9944,-51.5334 15.0091,26.4556 43.9783,39.8481 65.5872,33.5461 27.1317,-8.8283 42.0887,-37.8637 33.5245,-65.0799 22.4501,20.5224 54.1398,24.3075 72.7437,11.6362 23.0759,-16.7806 28.328,-49.0174 11.7721,-72.255 27.6931,12.5819 59.0029,6.3896 72.7811,-11.4109 16.7602,-23.0895 11.7944,-55.3702 -11.1306,-72.3548 0.047,0.018 0.095,0.036 0.1423,0.054 27.3231,8.8777 56.6696,-6.0753 65.5472,-33.3984 8.8049,-27.1383 -5.8927,-56.3044 -32.9437,-65.3739 29.7992,-6.1232 51.4868,-29.5111 52.1707,-52.019 -0.012,-28.5312 -23.0034,-51.7283 -51.5334,-51.9944 0.049,-0.013 0.098,-0.027 0.1475,-0.04 27.3232,-8.8776 42.2762,-38.2242 33.3984,-65.5473 -8.8279,-27.1306 -37.8614,-42.0876 -65.077,-33.5253 0.042,-0.028 0.084,-0.055 0.1264,-0.083 23.2423,-16.8866 28.3946,-49.4175 11.508,-72.6598 -16.7796,-23.0745 -49.0137,-28.3277 -72.2513,-11.7748 12.5796,-27.6931 6.3857,-59.0004 -11.4139,-72.7775 -23.0892,-16.7605 -55.3699,-11.7951 -72.3548,11.1295 3.4062,-30.2253 -12.1581,-58.0868 -33.3444,-65.6895 -27.1384,-8.8049 -56.3045,5.8928 -65.3739,32.9439 -9.1837,-24.6687 -29.6254,-50.7114 -52.0212,-52.1681 z"
       id="path1351"
       inkscape:connector-curvature="0" />
    <path
       inkscape:connector-curvature="0"
       id="path5025"
       d="m 562.58576,798.4954 c -28.5313,0.0119 -51.7285,23.00334 -51.9946,51.5334 -15.0092,-26.4556 -43.9784,-39.84791 -65.5872,-33.5459 -27.1307,8.82781 -42.0878,37.86135 -33.5256,65.077 -22.4498,-20.52162 -54.13882,-24.30495 -72.74165,-11.6344 -23.07599,16.78001 -28.32892,49.01627 -11.7739,72.2542 -0.0397,-0.0324 -0.0795,-0.0647 -0.1194,-0.097 -23.24226,-16.88673 -55.77324,-11.73451 -72.6599,11.5078 -16.76133,23.09007 -11.79497,55.3723 11.1315,72.3567 -30.22381,-3.4122 -58.08864,12.1566 -65.6912,33.3415 -8.80578,27.1399 5.89388,56.3077 32.9473,65.3757 -29.79986,6.1215 -51.48895,29.5098 -52.1733,52.0181 0.012,28.5313 23.00338,51.7284 51.5334,51.9945 -26.45573,15.009 -39.84814,43.9785 -33.5461,65.5873 8.82825,27.1317 37.86367,42.0887 65.0799,33.5245 -20.52249,22.4501 -24.30753,54.1399 -11.6362,72.7438 16.78065,23.0759 49.01741,28.328 72.255,11.772 -12.58186,27.6931 -6.38948,59.0028 11.411,72.781 23.0902,16.7611 55.37235,11.7945 72.35655,-11.1321 -3.4121,30.2237 12.1567,58.0884 33.3415,65.691 27.1396,8.8058 56.3073,-5.8935 65.3756,-32.9465 6.1217,29.7995 29.5099,51.4883 52.018,52.1727 28.5312,-0.012 51.7283,-23.0034 51.9944,-51.5334 15.0091,26.4556 43.9783,39.8481 65.5872,33.5461 27.1317,-8.8283 42.0887,-37.8637 33.5245,-65.0799 22.4501,20.5224 54.1398,24.3075 72.7437,11.6362 23.0759,-16.7806 28.328,-49.0174 11.7721,-72.255 27.6931,12.5819 59.0029,6.3896 72.7811,-11.4109 16.7602,-23.0895 11.7944,-55.3702 -11.1306,-72.3548 0.047,0.018 0.095,0.036 0.1423,0.054 27.3231,8.8777 56.6696,-6.0753 65.5472,-33.3984 8.8049,-27.1383 -5.8927,-56.3044 -32.9437,-65.3739 29.7992,-6.1232 51.4868,-29.5111 52.1707,-52.019 -0.012,-28.5312 -23.0034,-51.7283 -51.5334,-51.9944 0.049,-0.013 0.098,-0.027 0.1475,-0.04 27.3232,-8.8776 42.2762,-38.2242 33.3984,-65.5473 -8.8279,-27.1306 -37.8614,-42.0876 -65.077,-33.5253 0.042,-0.028 0.084,-0.055 0.1264,-0.083 23.2423,-16.8866 28.3946,-49.41751 11.508,-72.6598 -16.7796,-23.07448 -49.0137,-28.32768 -72.2513,-11.7748 12.5796,-27.69307 6.3857,-59.0004 -11.4139,-72.7775 -23.0892,-16.76048 -55.3699,-11.79512 -72.3548,11.1295 3.4062,-30.22531 -12.1581,-58.08679 -33.3444,-65.6895 -27.1384,-8.80492 -56.3045,5.89277 -65.3739,32.9439 -9.1837,-24.66869 -29.6254,-50.7114 -52.0212,-52.1681 z"
       style="opacity:0.98000004;fill:#8dd9eb;fill-opacity:1;stroke:none;stroke-width:1.32291663;stroke-linecap:round;stroke-linejoin:round;stroke-miterlimit:4;stroke-dasharray:none;stroke-opacity:1;paint-order:normal"
       sodipodi:nodetypes="ccccccccccccccccccccccccccccccccccccccccccccc" />
  </g>
  <g
     inkscape:label="Set"
     inkscape:groupmode="layer"
     id="set"
     transform="translate(0,-5)">
    <g
       id="g3738"
       style="opacity:0.46700003;fill:#ff0000;fill-opacity:1;stroke:none;stroke-width:6;stroke-linecap:round;stroke-linejoin:round;stroke-miterlimit:4;stroke-dasharray:none;stroke-opacity:0.34782613;paint-order:normal"
       transform="translate(98.532335,29.943264)" />
    <path
       style="opacity:1;fill:#ff00ff;fill-opacity:1;stroke:none;stroke-width:1.58749998;stroke-linecap:round;stroke-linejoin:round;stroke-miterlimit:4;stroke-dasharray:none;stroke-opacity:0.34782613;paint-order:normal"
       d="m -18.318547,-543.49342 h 67.4971 v 66.33349 h -67.4971 z"
       id="rect19"
       spawn="true"
       inkscape:connector-curvature="0" />
    <path
       style="fill:#ff8600;fill-opacity:1;stroke:none;stroke-width:0.26458332px;stroke-linecap:butt;stroke-linejoin:miter;stroke-opacity:1"
       d="m 16.292426,161.66058 c 132.206454,22.64067 313.021614,27.53633 374.725804,146.63184 53.66871,103.58621 -137.59976,236.30066 -83.78962,339.81347 58.34626,112.23878 266.15892,46.08234 353.77842,137.32187 84.63028,88.12681 -107.82992,86.96844 -82.41837,206.47944 30.78031,144.7603 -153.79089,184.6796 -56.88307,296.536 183.2296,211.4938 521.90511,289.1268 800.32681,317.1278 340.5952,34.2538 785.0114,-275.2757 1026.423,-32.5848 73.9149,74.3066 -111.8194,119.8948 33.105,255.4648 139.4183,130.4192 284.721,124.5453 407.6613,57.1485 228.981,-125.5291 -71.4206,-106.1072 308.5463,-368.0957 599.3016,-413.2204 4361.0769,90.9477 4361.0769,90.9477 L 6553.2921,4646.2127 -395.67323,4141.6676 C 102.32816,3231.2737 -640.67276,49.153733 16.292426,161.66058 Z"
       id="path108"
       inkscape:connector-curvature="0"
       sodipodi:nodetypes="ssssssssssscccs"
       transform="translate(0,5)" />
    <path
       style="fill:#ff8600;fill-opacity:1;stroke:none;stroke-width:0.26458332px;stroke-linecap:butt;stroke-linejoin:miter;stroke-opacity:1"
       d="m 2675.6267,1452.6526 c -53.1386,-1.3386 -130.8326,68.9282 -108.2844,117.0643 27.9702,59.7107 171.1749,50.1909 197.5459,-10.2432 18.5581,-42.5293 -42.8741,-105.6525 -89.2615,-106.8211 z"
       id="path915"
       inkscape:connector-curvature="0"
       sodipodi:nodetypes="ssss"
       rotate="0.5" />
  </g>
</svg>
