<?xml version="1.0" encoding="UTF-8" standalone="no"?>
<!-- Created with Inkscape (http://www.inkscape.org/) -->

<svg
   xmlns:dc="http://purl.org/dc/elements/1.1/"
   xmlns:cc="http://creativecommons.org/ns#"
   xmlns:rdf="http://www.w3.org/1999/02/22-rdf-syntax-ns#"
   xmlns:svg="http://www.w3.org/2000/svg"
   xmlns="http://www.w3.org/2000/svg"
   xmlns:sodipodi="http://sodipodi.sourceforge.net/DTD/sodipodi-0.dtd"
   xmlns:inkscape="http://www.inkscape.org/namespaces/inkscape"
   width="146.75812"
   height="116.33298"
   viewBox="0 0 38.829751 30.77977"
   version="1.1"
   id="svg8"
   inkscape:version="0.92.4 5da689c313, 2019-01-14"
   sodipodi:docname="fly2.svg">
  <defs
     id="defs2" />
  <sodipodi:namedview
     id="base"
     pagecolor="#ffffff"
     bordercolor="#666666"
     borderopacity="1.0"
     inkscape:pageopacity="0.0"
     inkscape:pageshadow="2"
     inkscape:zoom="0.35"
     inkscape:cx="143.54517"
     inkscape:cy="131.0391"
     inkscape:document-units="px"
     inkscape:current-layer="layer1"
     showgrid="false"
     units="px"
     fit-margin-top="0"
     fit-margin-left="0"
     fit-margin-right="0"
     fit-margin-bottom="0" />
  <metadata
     id="metadata5">
    <rdf:RDF>
      <cc:Work
         rdf:about="">
        <dc:format>image/svg+xml</dc:format>
        <dc:type
           rdf:resource="http://purl.org/dc/dcmitype/StillImage" />
        <dc:title />
      </cc:Work>
    </rdf:RDF>
  </metadata>
  <g
     inkscape:label="Layer 1"
     inkscape:groupmode="layer"
     id="layer1"
     transform="translate(-7.7994107,-98.669631)">
    <path
       sodipodi:nodetypes="cscc"
       inkscape:connector-curvature="0"
       id="path15"
       d="m 26.617901,103.08655 c 0,0 -19.2999605,0.63784 -18.8092905,4.76119 0.51256,4.30713 18.1940305,-0.13862 18.1940305,-0.13862 z"
       style="fill:#bec4b7;fill-opacity:1;stroke:none;stroke-width:0.26458329px;stroke-linecap:butt;stroke-linejoin:miter;stroke-opacity:1" />
    <path
       style="fill:#bec4b7;fill-opacity:1;stroke:none;stroke-width:0.26458329px;stroke-linecap:butt;stroke-linejoin:miter;stroke-opacity:1"
       d="m 27.81068,103.08655 c 0,0 19.299959,0.63785 18.809281,4.76119 -0.512572,4.30712 -18.19403,-0.13862 -18.19403,-0.13862 z"
       id="path17"
       inkscape:connector-curvature="0"
       sodipodi:nodetypes="cscc" />
    <path
       inkscape:connector-curvature="0"
       id="path19"
       d="m 27.214291,100.72287 c 8.119868,0 14.65691,6.406 14.65691,14.36326 0,7.95729 -6.537042,14.36327 -14.65691,14.36327 -8.119941,0 -14.656951,-6.40598 -14.656951,-14.36327 0,-7.95726 6.53701,-14.36326 14.656951,-14.36326 z"
       style="display:inline;opacity:1;fill:#ef087b;fill-opacity:1;stroke:none;stroke-width:13.22916031;stroke-linecap:round;stroke-linejoin:round;stroke-miterlimit:4;stroke-dasharray:none;stroke-opacity:1;paint-order:normal" />
    <path
       style="display:inline;opacity:1;fill:#e1e4c7;fill-opacity:1;stroke:none;stroke-width:13.22916031;stroke-linecap:round;stroke-linejoin:round;stroke-miterlimit:4;stroke-dasharray:none;stroke-opacity:1;paint-order:normal"
       d="m 23.147331,98.669631 c 2.061809,0 3.721699,1.626589 3.721699,3.647139 0,2.0205 -1.65989,3.64708 -3.721699,3.64708 -2.061821,0 -3.7217,-1.62658 -3.7217,-3.64708 0,-2.02055 1.659879,-3.647139 3.7217,-3.647139 z"
       id="path22"
       inkscape:connector-curvature="0" />
    <path
       inkscape:connector-curvature="0"
       id="path24"
       d="m 23.445971,99.615151 c 1.51449,0 2.73383,1.194849 2.73383,2.679079 0,1.48417 -1.21934,2.67895 -2.73383,2.67895 -1.514591,0 -2.73386,-1.19478 -2.73386,-2.67895 0,-1.48423 1.219269,-2.679079 2.73386,-2.679079 z"
       style="display:inline;opacity:1;fill:#010100;fill-opacity:1;stroke:none;stroke-width:13.22916031;stroke-linecap:round;stroke-linejoin:round;stroke-miterlimit:4;stroke-dasharray:none;stroke-opacity:1;paint-order:normal" />
    <path
       inkscape:connector-curvature="0"
       id="path26"
       d="m 31.28124,98.669631 c -2.061799,0 -3.72168,1.626589 -3.72168,3.647139 0,2.0205 1.659881,3.64708 3.72168,3.64708 2.06185,0 3.721701,-1.62658 3.721701,-3.64708 0,-2.02055 -1.659851,-3.647139 -3.721701,-3.647139 z"
       style="display:inline;opacity:1;fill:#e1e4c7;fill-opacity:1;stroke:none;stroke-width:13.22916031;stroke-linecap:round;stroke-linejoin:round;stroke-miterlimit:4;stroke-dasharray:none;stroke-opacity:1;paint-order:normal" />
    <path
       style="display:inline;opacity:1;fill:#010100;fill-opacity:1;stroke:none;stroke-width:13.22916031;stroke-linecap:round;stroke-linejoin:round;stroke-miterlimit:4;stroke-dasharray:none;stroke-opacity:1;paint-order:normal"
       d="m 30.982631,99.615151 c -1.514501,0 -2.73387,1.194849 -2.73387,2.679079 0,1.48417 1.219369,2.67895 2.73387,2.67895 1.514549,0 2.733849,-1.19478 2.733849,-2.67895 0,-1.48423 -1.2193,-2.679079 -2.733849,-2.679079 z"
       id="path28"
       inkscape:connector-curvature="0" />
  </g>
</svg>
