<?xml version="1.0" encoding="UTF-8" standalone="no"?>
<!-- Created with Inkscape (http://www.inkscape.org/) -->

<svg
   xmlns:dc="http://purl.org/dc/elements/1.1/"
   xmlns:cc="http://creativecommons.org/ns#"
   xmlns:rdf="http://www.w3.org/1999/02/22-rdf-syntax-ns#"
   xmlns:svg="http://www.w3.org/2000/svg"
   xmlns="http://www.w3.org/2000/svg"
   xmlns:sodipodi="http://sodipodi.sourceforge.net/DTD/sodipodi-0.dtd"
   xmlns:inkscape="http://www.inkscape.org/namespaces/inkscape"
   width="793.70081"
   height="1122.5197"
   viewBox="0 0 210 297"
   version="1.1"
   id="svg8"
   inkscape:version="0.92.4 5da689c313, 2019-01-14"
   sodipodi:docname="jar.svg">
  <defs
     id="defs2" />
  <sodipodi:namedview
     id="base"
     pagecolor="#ffffff"
     bordercolor="#666666"
     borderopacity="1.0"
     inkscape:pageopacity="0.0"
     inkscape:pageshadow="2"
     inkscape:zoom="0.1767767"
     inkscape:cx="1994.6315"
     inkscape:cy="436.09601"
     inkscape:document-units="px"
     inkscape:current-layer="layer1"
     showgrid="false"
     units="px" />
  <metadata
     id="metadata5">
    <rdf:RDF>
      <cc:Work
         rdf:about="">
        <dc:format>image/svg+xml</dc:format>
        <dc:type
           rdf:resource="http://purl.org/dc/dcmitype/StillImage" />
        <dc:title></dc:title>
      </cc:Work>
    </rdf:RDF>
  </metadata>
  <g
     inkscape:label="Layer 1"
     inkscape:groupmode="layer"
     id="layer1">
    <path
       style="color:#000000;font-style:normal;font-variant:normal;font-weight:normal;font-stretch:normal;font-size:medium;line-height:normal;font-family:sans-serif;font-variant-ligatures:normal;font-variant-position:normal;font-variant-caps:normal;font-variant-numeric:normal;font-variant-alternates:normal;font-feature-settings:normal;text-indent:0;text-align:start;text-decoration:none;text-decoration-line:none;text-decoration-style:solid;text-decoration-color:#000000;letter-spacing:normal;word-spacing:normal;text-transform:none;writing-mode:lr-tb;direction:ltr;text-orientation:mixed;dominant-baseline:auto;baseline-shift:baseline;text-anchor:start;white-space:normal;shape-padding:0;clip-rule:nonzero;display:inline;overflow:visible;visibility:visible;opacity:1;isolation:auto;mix-blend-mode:normal;color-interpolation:sRGB;color-interpolation-filters:linearRGB;solid-color:#000000;solid-opacity:1;vector-effect:none;fill:#b6b6b6;fill-opacity:1;fill-rule:nonzero;stroke:none;stroke-width:11.90625;stroke-linecap:butt;stroke-linejoin:miter;stroke-miterlimit:4;stroke-dasharray:none;stroke-dashoffset:0;stroke-opacity:1;color-rendering:auto;image-rendering:auto;shape-rendering:auto;text-rendering:auto;enable-background:accumulate"
       d="m 150.42725,40.482245 c -1.63527,4.779748 2.32617,18.071217 1.48336,32.327592 -0.75024,12.690433 -4.18792,25.648325 -8.23091,29.115713 -4.04299,3.46739 -10.8577,4.62942 -18.36287,6.21016 -15.01031,3.16146 -34.959679,6.41279 -47.520019,25.42692 -5.92481,8.96914 -7.58781,17.41287 -9.73224,28.44024 -2.14443,11.02732 -3.78987,24.11031 -5.10975,38.80714 -2.63977,29.39365 -3.90198,65.1235 -3.94291,100.69475 -0.0409,35.57124 1.14332,70.87644 3.51977,99.40609 1.18822,14.26484 2.65319,26.80411 4.54556,37.19797 1.89236,10.39387 2.5864,17.70623 9.20652,27.06819 13.82951,19.55725 35.472389,23.37026 60.887439,27.69009 25.41505,4.31983 55.58139,5.96541 85.73094,5.82781 30.14956,-0.13754 60.13538,-2.09175 84.86543,-5.39182 12.36503,-1.65003 23.38998,-3.62259 32.78703,-6.03297 9.39704,-2.41043 16.80705,-4.34031 24.74092,-10.41824 11.09774,-8.50177 14.18489,-18.96642 17.39366,-30.69697 3.20878,-11.73055 5.28241,-25.43529 6.75744,-40.87158 2.95006,-30.8726 3.30142,-68.53122 2.07083,-106.02889 -1.2306,-37.49771 -4.06246,-74.68931 -7.73836,-104.29147 -1.83795,-14.80108 -3.87279,-27.66792 -6.14836,-38.08269 -2.27557,-10.41477 -2.10931,-16.83583 -10.39901,-26.86306 -13.04298,-15.77679 -30.5525,-19.46237 -44.39776,-23.19581 -6.92264,-1.86672 -13.17573,-3.38969 -15.71377,-4.95002 -2.53803,-1.56033 -3.09224,-3.297482 -3.40452,-5.641323 -0.76839,-5.767339 -1.13554,-13.337161 -1.19248,-20.618508 -0.11387,-14.562769 3.32631,-32.133531 1.16257,-35.494304 -2.34034,-3.635062 -36.74697,-5.761166 -38.96745,-3.019681 -2.58182,3.187618 -1.40735,22.269929 -1.27797,38.81529 0.0647,8.272677 0.4145,17.088488 1.53228,25.478226 1.11779,8.38974 1.8046,16.08258 8.37948,25.20896 7.42488,10.30622 14.2237,10.8006 20.4454,12.79039 6.22171,1.98978 12.63393,3.48806 18.86184,5.16745 11.44709,3.08678 17.82056,9.74546 20.02974,12.03087 11.10787,11.49122 10.70619,30.35819 12.30208,43.18905 3.48354,28.05303 6.27559,64.3917 7.46908,100.75886 1.1935,36.36716 0.7702,72.90692 -1.91695,101.02813 -1.34358,14.06063 -3.30336,26.05345 -5.55213,34.27443 -1.62764,5.95028 -3.09082,9.11042 -4.24423,10.25157 -0.72701,0.7193 -3.2689,1.62676 -9.89894,3.32742 -7.15389,1.83501 -16.94887,3.63401 -28.24787,5.14182 -22.59799,3.01557 -51.32104,4.92169 -79.87749,5.05204 -28.55646,0.13031 -57.09608,-1.54713 -78.99916,-5.27004 -21.23201,-3.60883 -34.7442,-11.12689 -34.95401,-11.48252 -0.66707,-1.13064 -2.16447,-5.85718 -3.23768,-11.75179 -1.5274,-8.38927 -2.93073,-19.98113 -4.05189,-33.44096 -2.242329,-26.9196 -3.425019,-61.44929 -3.385129,-96.11714 0.0399,-34.66782 1.29794,-69.57864 3.782619,-97.24551 1.24235,-13.83342 2.80876,-25.88083 4.55198,-34.84501 0.97025,-4.98938 4.22135,-9.25968 7.44899,-12.23777 4.15734,-3.83589 14.95497,-9.88727 19.49099,-10.84265 6.47241,-1.36321 13.23291,-2.45998 19.8107,-4.05192 6.57777,-1.5919 13.86474,-1.11711 22.28543,-12.28388 13.07066,-17.33318 14.44054,-37.729886 15.45746,-54.93143 1.01693,-17.201541 0.35628,-34.574532 -1.52823,-37.616862 -1.67681,-2.707055 -37.58448,-1.054648 -38.96745,2.987647 z"
       id="path516"
       inkscape:connector-curvature="0"
       sodipodi:nodetypes="sssssssssssssssssssssssssssssssssscsssssssssssssssssssss" />
  </g>
</svg>
