<?xml version="1.0" encoding="UTF-8" standalone="no"?>
<!-- Created with Inkscape (http://www.inkscape.org/) -->

<svg
   xmlns:dc="http://purl.org/dc/elements/1.1/"
   xmlns:cc="http://creativecommons.org/ns#"
   xmlns:rdf="http://www.w3.org/1999/02/22-rdf-syntax-ns#"
   xmlns:svg="http://www.w3.org/2000/svg"
   xmlns="http://www.w3.org/2000/svg"
   xmlns:sodipodi="http://sodipodi.sourceforge.net/DTD/sodipodi-0.dtd"
   xmlns:inkscape="http://www.inkscape.org/namespaces/inkscape"
   width="764.69067"
   height="171.38525"
   viewBox="0 0 202.3244 45.345683"
   version="1.1"
   id="svg8"
   inkscape:version="0.92.4 5da689c313, 2019-01-14"
   sodipodi:docname="logo.svg">
  <defs
     id="defs2" />
  <sodipodi:namedview
     id="base"
     pagecolor="#ffffff"
     bordercolor="#666666"
     borderopacity="1.0"
     inkscape:pageopacity="0.0"
     inkscape:pageshadow="2"
     inkscape:zoom="1.4142136"
     inkscape:cx="374.74596"
     inkscape:cy="122.21293"
     inkscape:document-units="px"
     inkscape:current-layer="layer1"
     showgrid="false"
     units="px"
     fit-margin-top="0"
     fit-margin-left="0"
     fit-margin-right="0"
     fit-margin-bottom="0" />
  <metadata
     id="metadata5">
    <rdf:RDF>
      <cc:Work
         rdf:about="">
        <dc:format>image/svg+xml</dc:format>
        <dc:type
           rdf:resource="http://purl.org/dc/dcmitype/StillImage" />
        <dc:title></dc:title>
      </cc:Work>
    </rdf:RDF>
  </metadata>
  <g
     inkscape:label="Layer 1"
     inkscape:groupmode="layer"
     id="layer1"
     transform="translate(-26.07636,-103.66113)">
    <path
       style="fill:#af1e23;fill-opacity:1;stroke:none;stroke-width:0.26458332px;stroke-linecap:butt;stroke-linejoin:miter;stroke-opacity:1"
       d="m 26.07636,104.46779 15.441727,-0.80666 -3.629956,37.10625 11.005116,-1.72855 -0.172853,6.51088 -18.322665,3.4571 z"
       id="path4624"
       inkscape:connector-curvature="0" />
    <path
       style="opacity:1;fill:#525a48;fill-opacity:1;stroke:none;stroke-width:1.32291663;stroke-linecap:round;stroke-linejoin:round;stroke-miterlimit:4;stroke-dasharray:none;stroke-opacity:1;paint-order:normal"
       d="m 62.572836,118.75394 c -7.177947,0 -13.227333,5.64694 -13.227333,13.46617 0,7.81924 5.703662,14.8495 13.140884,14.70545 7.437223,-0.14404 13.198807,-6.68435 13.198807,-14.50358 0,-7.81924 -5.93442,-13.66804 -13.112358,-13.66804 z"
       id="path4626"
       inkscape:connector-curvature="0"
       sodipodi:nodetypes="sscss" />
    <path
       id="path4628"
       d="m 111.08116,118.7253 c -7.68114,-0.35427 -13.9429,4.97132 -14.454354,12.77381 -0.511455,7.80248 4.950624,15.04672 13.043954,15.30303 8.09333,0.2563 13.72299,-5.83551 14.23446,-13.638 0.51145,-7.80249 -5.14293,-14.08456 -12.82406,-14.43884 z"
       style="opacity:1;fill:#83654b;fill-opacity:1;stroke:none;stroke-width:1.32291663;stroke-linecap:round;stroke-linejoin:round;stroke-miterlimit:4;stroke-dasharray:none;stroke-opacity:1;paint-order:normal"
       inkscape:connector-curvature="0"
       sodipodi:nodetypes="zszsz" />
    <path
       sodipodi:nodetypes="zszsz"
       inkscape:connector-curvature="0"
       style="opacity:1;fill:#956825;fill-opacity:1;stroke:none;stroke-width:1.32291663;stroke-linecap:round;stroke-linejoin:round;stroke-miterlimit:4;stroke-dasharray:none;stroke-opacity:1;paint-order:normal"
       d="m 215.52544,118.39852 c -7.69259,-0.36045 -13.96368,5.05801 -14.47589,12.99656 -0.51222,7.93855 4.958,15.30911 13.06338,15.56989 8.10539,0.26077 13.74345,-5.93727 14.25567,-13.87583 0.51222,-7.93854 -5.15058,-14.33017 -12.84316,-14.69062 z"
       id="path4630" />
    <path
       id="path4632"
       d="m 164.7732,120.19439 c -7.07561,0 -13.03874,5.37556 -13.03874,12.819 0,7.44344 5.62233,14.13582 12.95351,13.99871 7.33119,-0.13713 13.01062,-6.3631 13.01062,-13.80654 0,-7.44344 -5.84981,-13.01117 -12.92539,-13.01117 z"
       style="opacity:1;fill:#7c7d3b;fill-opacity:1;stroke:none;stroke-width:1.32291663;stroke-linecap:round;stroke-linejoin:round;stroke-miterlimit:4;stroke-dasharray:none;stroke-opacity:1;paint-order:normal"
       inkscape:connector-curvature="0"
       sodipodi:nodetypes="sscss" />
    <path
       style="fill:#6a1d4b;fill-opacity:1;stroke:none;stroke-width:0.26458332px;stroke-linecap:butt;stroke-linejoin:miter;stroke-opacity:1"
       d="m 94.922158,119.03025 0.256818,9.41537 c 0,0 -11.57808,-0.36285 -10.865298,8.43791 0.763831,9.431 11.21924,4.53822 11.21924,4.53822 l 0.303858,3.86372 c -5.318917,3.60773 -18.378156,2.57608 -18.092191,-11.22054 0.237088,-11.43878 10.038414,-15.26427 17.177573,-15.03468 z"
       id="path4634"
       inkscape:connector-curvature="0"
       sodipodi:nodetypes="ccsccsc" />
    <path
       style="fill:#de6d2b;fill-opacity:1;stroke:none;stroke-width:0.26458332px;stroke-linecap:butt;stroke-linejoin:miter;stroke-opacity:1"
       d="m 127.83606,106.53326 3.28734,41.64405 6.17094,-1.39167 1.39122,-11.69662 8.06661,12.50319 4.67901,-3.4482 -5.44503,-14.01608 c 0,0 7.06459,-4.91123 7.28054,-11.47916 0.32703,-9.94615 -6.01775,-14.23791 -12.34189,-14.53745 -4.33657,-0.2054 -8.96358,0.85363 -13.08874,2.42194 z"
       id="path4636"
       inkscape:connector-curvature="0"
       sodipodi:nodetypes="cccccccssc" />
    <path
       style="fill:#460408;fill-opacity:1;stroke:none;stroke-width:0.26458332px;stroke-linecap:butt;stroke-linejoin:miter;stroke-opacity:1"
       d="m 201.00009,118.37111 -0.88732,10.24456 c 0,0 -13.78703,-2.84857 -13.88512,7.51034 -0.0761,8.04244 10.65848,5.79951 10.65848,5.79951 l 0.40333,3.46863 c -4.87686,3.76459 -18.31828,1.51305 -18.34411,-10.97227 -0.0278,-13.42672 13.69848,-18.8457 22.05474,-16.05077 z"
       id="path4640"
       inkscape:connector-curvature="0"
       sodipodi:nodetypes="ccsccsc" />
    <path
       inkscape:connector-curvature="0"
       id="path91"
       d="m 62.465441,129.49783 c 3.101746,0 5.507414,2.51777 5.507414,5.92228 0,3.40451 -2.345322,6.09396 -5.559101,6.15668 -3.213788,0.0627 -5.707499,-2.69557 -5.707499,-6.10009 0,-3.40452 2.657449,-5.97887 5.759186,-5.97887 z"
       style="opacity:1;fill:#ffffff;fill-opacity:1;stroke:none;stroke-width:1.32291663;stroke-linecap:round;stroke-linejoin:round;stroke-miterlimit:4;stroke-dasharray:none;stroke-opacity:1;paint-order:normal"
       sodipodi:nodetypes="sscss" />
    <path
       sodipodi:nodetypes="sssss"
       inkscape:connector-curvature="0"
       style="opacity:1;fill:#ffffff;fill-opacity:1;stroke:none;stroke-width:1.32291663;stroke-linecap:round;stroke-linejoin:round;stroke-miterlimit:4;stroke-dasharray:none;stroke-opacity:1;paint-order:normal"
       d="m 110.39039,129.48484 c 2.86463,0.14527 5.55748,2.85574 5.3348,6.25296 -0.22269,3.39723 -2.73891,5.92751 -5.9499,5.77989 -3.21101,-0.14764 -5.9367,-3.09194 -5.71401,-6.48917 0.22268,-3.39722 3.23135,-5.70077 6.32911,-5.54368 z"
       id="path93" />
    <path
       inkscape:connector-curvature="0"
       style="opacity:1;fill:#ffffff;fill-opacity:1;stroke:none;stroke-width:1.32291663;stroke-linecap:round;stroke-linejoin:round;stroke-miterlimit:4;stroke-dasharray:none;stroke-opacity:1;paint-order:normal"
       d="m 164.66733,130.42193 c 3.05752,0 5.42889,2.39677 5.42889,5.63766 0,3.2409 -2.31189,5.80109 -5.47984,5.86079 -3.16797,0.0597 -5.62613,-2.56601 -5.62613,-5.80691 0,-3.2409 2.61957,-5.69154 5.67708,-5.69154 z"
       id="path95"
       sodipodi:nodetypes="sssss" />
    <path
       id="path97"
       d="m 214.83364,129.3457 c 2.8689,0.14779 5.56577,2.90553 5.34274,6.362 -0.22301,3.45646 -2.74298,6.03087 -5.95876,5.88066 -3.2158,-0.1502 -5.94554,-3.14584 -5.72252,-6.60232 0.22301,-3.45646 3.23616,-5.80018 6.33854,-5.64034 z"
       style="opacity:1;fill:#ffffff;fill-opacity:1;stroke:none;stroke-width:1.32291663;stroke-linecap:round;stroke-linejoin:round;stroke-miterlimit:4;stroke-dasharray:none;stroke-opacity:1;paint-order:normal"
       inkscape:connector-curvature="0"
       sodipodi:nodetypes="sssss" />
    <path
       inkscape:connector-curvature="0"
       id="path103"
       d="m 140.46047,117.06014 c 3.86842,1.01678 4.17468,3.40735 4.05559,4.92676 -0.25478,3.25049 -2.62439,4.3595 -5.10413,4.89425 z"
       style="fill:#ffffff;fill-opacity:1;stroke:none;stroke-width:0.26458332px;stroke-linecap:butt;stroke-linejoin:miter;stroke-opacity:1"
       sodipodi:nodetypes="cccc" />
  </g>
</svg>
