<?xml version="1.0" encoding="UTF-8" standalone="no"?>
<!-- Created with Inkscape (http://www.inkscape.org/) -->

<svg
   xmlns:dc="http://purl.org/dc/elements/1.1/"
   xmlns:cc="http://creativecommons.org/ns#"
   xmlns:rdf="http://www.w3.org/1999/02/22-rdf-syntax-ns#"
   xmlns:svg="http://www.w3.org/2000/svg"
   xmlns="http://www.w3.org/2000/svg"
   xmlns:sodipodi="http://sodipodi.sourceforge.net/DTD/sodipodi-0.dtd"
   xmlns:inkscape="http://www.inkscape.org/namespaces/inkscape"
   width="32.494789"
   height="34.166615"
   viewBox="0 0 8.5975794 9.039917"
   version="1.1"
   id="svg8"
   inkscape:version="0.92.4 5da689c313, 2019-01-14"
   sodipodi:docname="fly.svg">
  <defs
     id="defs2" />
  <sodipodi:namedview
     id="base"
     pagecolor="#ffffff"
     bordercolor="#666666"
     borderopacity="1.0"
     inkscape:pageopacity="0.0"
     inkscape:pageshadow="2"
     inkscape:zoom="1"
     inkscape:cx="1.2481922"
     inkscape:cy="-0.63078827"
     inkscape:document-units="px"
     inkscape:current-layer="layer1"
     showgrid="false"
     units="mm"
     fit-margin-top="0"
     fit-margin-left="0"
     fit-margin-right="0"
     fit-margin-bottom="0" />
  <metadata
     id="metadata5">
    <rdf:RDF>
      <cc:Work
         rdf:about="">
        <dc:format>image/svg+xml</dc:format>
        <dc:type
           rdf:resource="http://purl.org/dc/dcmitype/StillImage" />
        <dc:title></dc:title>
      </cc:Work>
    </rdf:RDF>
  </metadata>
  <g
     inkscape:label="Layer 1"
     inkscape:groupmode="layer"
     id="layer1"
     transform="translate(-195.01884,-126.08704)">
    <path
       style="fill:#bec4b7;fill-opacity:1;stroke:none;stroke-width:0.26458329px;stroke-linecap:butt;stroke-linejoin:miter;stroke-opacity:1"
       d="m 212.78894,137.33297 c 0,0 -14.09815,-13.19611 -16.66685,-9.9335 -2.68316,3.40803 12.96314,12.7671 12.96314,12.7671 z"
       id="path29"
       inkscape:connector-curvature="0"
       sodipodi:nodetypes="cscc" />
    <path
       sodipodi:nodetypes="cscc"
       inkscape:connector-curvature="0"
       id="path36"
       d="m 212.27994,137.33297 c 0,0 14.09816,-13.19611 16.66684,-9.9335 2.68315,3.40803 -12.96314,12.7671 -12.96314,12.7671 z"
       style="fill:#bec4b7;fill-opacity:1;stroke:none;stroke-width:0.26458329px;stroke-linecap:butt;stroke-linejoin:miter;stroke-opacity:1" />
    <path
       style="opacity:1;fill:#ce196b;fill-opacity:1;stroke:none;stroke-width:13.22916126;stroke-linecap:round;stroke-linejoin:round;stroke-miterlimit:4;stroke-dasharray:none;stroke-opacity:1;paint-order:normal"
       d="m 212.53444,132.61404 c 8.11987,0 14.65691,6.406 14.65691,14.36326 0,7.95729 -6.53704,14.36327 -14.65691,14.36327 -8.11994,0 -14.65695,-6.40598 -14.65695,-14.36327 0,-7.95726 6.53701,-14.36326 14.65695,-14.36326 z"
       id="rect18"
       inkscape:connector-curvature="0" />
    <path
       inkscape:connector-curvature="0"
       id="path21"
       d="m 208.46748,130.5608 c 2.06181,0 3.7217,1.62659 3.7217,3.64714 0,2.0205 -1.65989,3.64708 -3.7217,3.64708 -2.06182,0 -3.7217,-1.62658 -3.7217,-3.64708 0,-2.02055 1.65988,-3.64714 3.7217,-3.64714 z"
       style="opacity:1;fill:#e1e4c7;fill-opacity:1;stroke:none;stroke-width:13.22916126;stroke-linecap:round;stroke-linejoin:round;stroke-miterlimit:4;stroke-dasharray:none;stroke-opacity:1;paint-order:normal" />
    <path
       style="opacity:1;fill:#010100;fill-opacity:1;stroke:none;stroke-width:13.22916126;stroke-linecap:round;stroke-linejoin:round;stroke-miterlimit:4;stroke-dasharray:none;stroke-opacity:1;paint-order:normal"
       d="m 208.76612,131.50632 c 1.51449,0 2.73383,1.19485 2.73383,2.67908 0,1.48417 -1.21934,2.67895 -2.73383,2.67895 -1.51459,0 -2.73386,-1.19478 -2.73386,-2.67895 0,-1.48423 1.21927,-2.67908 2.73386,-2.67908 z"
       id="path23"
       inkscape:connector-curvature="0" />
    <path
       style="opacity:1;fill:#e1e4c7;fill-opacity:1;stroke:none;stroke-width:13.22916126;stroke-linecap:round;stroke-linejoin:round;stroke-miterlimit:4;stroke-dasharray:none;stroke-opacity:1;paint-order:normal"
       d="m 216.60139,130.5608 c -2.0618,0 -3.72168,1.62659 -3.72168,3.64714 0,2.0205 1.65988,3.64708 3.72168,3.64708 2.06185,0 3.7217,-1.62658 3.7217,-3.64708 0,-2.02055 -1.65985,-3.64714 -3.7217,-3.64714 z"
       id="path38"
       inkscape:connector-curvature="0" />
    <path
       inkscape:connector-curvature="0"
       id="path40"
       d="m 216.30278,131.50632 c -1.5145,0 -2.73387,1.19485 -2.73387,2.67908 0,1.48417 1.21937,2.67895 2.73387,2.67895 1.51455,0 2.73385,-1.19478 2.73385,-2.67895 0,-1.48423 -1.2193,-2.67908 -2.73385,-2.67908 z"
       style="opacity:1;fill:#010100;fill-opacity:1;stroke:none;stroke-width:13.22916126;stroke-linecap:round;stroke-linejoin:round;stroke-miterlimit:4;stroke-dasharray:none;stroke-opacity:1;paint-order:normal" />
  </g>
</svg>
