<?xml version="1.0" encoding="UTF-8" standalone="no"?>
<!-- Created with Inkscape (http://www.inkscape.org/) -->

<svg
   xmlns:dc="http://purl.org/dc/elements/1.1/"
   xmlns:cc="http://creativecommons.org/ns#"
   xmlns:rdf="http://www.w3.org/1999/02/22-rdf-syntax-ns#"
   xmlns:svg="http://www.w3.org/2000/svg"
   xmlns="http://www.w3.org/2000/svg"
   xmlns:sodipodi="http://sodipodi.sourceforge.net/DTD/sodipodi-0.dtd"
   xmlns:inkscape="http://www.inkscape.org/namespaces/inkscape"
   width="210mm"
   height="297mm"
   viewBox="0 0 210 297"
   version="1.1"
   id="svg8"
   inkscape:version="0.92.4 5da689c313, 2019-01-14"
   sodipodi:docname="assets.svg">
  <defs
     id="defs2" />
  <sodipodi:namedview
     id="base"
     pagecolor="#ffffff"
     bordercolor="#666666"
     borderopacity="1.0"
     inkscape:pageopacity="0.0"
     inkscape:pageshadow="2"
     inkscape:zoom="0.24748738"
     inkscape:cx="-262.61119"
     inkscape:cy="909.06115"
     inkscape:document-units="mm"
     inkscape:current-layer="TEST"
     showgrid="false"
     inkscape:window-width="1366"
     inkscape:window-height="740"
     inkscape:window-x="0"
     inkscape:window-y="0"
     inkscape:window-maximized="0" />
  <metadata
     id="metadata5">
    <rdf:RDF>
      <cc:Work
         rdf:about="">
        <dc:format>image/svg+xml</dc:format>
        <dc:type
           rdf:resource="http://purl.org/dc/dcmitype/StillImage" />
        <dc:title />
      </cc:Work>
    </rdf:RDF>
  </metadata>
  <g
     inkscape:label="Layer 1"
     inkscape:groupmode="layer"
     id="TEST">
    <path
       inkscape:connector-curvature="0"
       id="circle4921"
       d="m 74.604207,100.33938 c -3.699,3.24532 -4.06668,8.8736 -0.82138,12.57258 1.76722,2.01445 3.59469,3.47415 6.42542,4.29033 -2.91277,0.44099 -4.91468,1.65069 -6.92892,3.41787 -3.69882,3.24558 -4.06562,8.87498 -0.82031,12.57396 3.24507,3.69873 8.87406,4.06629 12.57125,0.82255 2.01495,-1.76781 3.47391,-3.59537 4.29016,-6.42561 0.44124,2.91216 1.65113,4.91271 3.41801,6.92643 3.24544,3.69898 8.874793,4.0681 12.573793,0.82278 3.69894,-3.24527 4.06778,-8.875 0.82414,-12.57225 -1.76774,-2.01485 -3.59471,-3.47502 -6.424124,-4.2915 2.910694,-0.44144 4.911734,-1.65038 6.925074,-3.41679 3.69903,-3.24533 4.06561,-8.87482 0.82003,-12.57413 -3.24516,-3.698801 -8.873353,-4.066481 -12.572373,-0.82114 -2.01368,1.76669 -3.47382,3.59342 -4.29008,6.42281 -0.44143,-2.912 -1.64975,-4.9139 -3.41671,-6.92771 -3.24544,-3.698871 -8.87504,-4.065451 -12.57398,-0.82018 z"
       style="opacity:0.98000004;fill:#f4d75c;fill-opacity:1;stroke:none;stroke-width:1.32291663;stroke-linecap:round;stroke-linejoin:round;stroke-miterlimit:4;stroke-dasharray:none;stroke-opacity:1;paint-order:normal" />
    <path
       inkscape:connector-curvature="0"
       id="path4952"
       d="m 83.569407,17.114406 c -4.81332,1.65642 -7.37192,6.90009 -5.7155,11.71338 0.90193,2.62125 2.07902,4.73506 4.46883,6.62617 -2.96121,-0.71982 -5.35187,-0.34669 -7.97289,0.5553 -4.81325,1.65674 -7.37144,6.90183 -5.71502,11.71512 1.6563,4.812959 6.90068,7.37172 11.71166,5.71609 2.62195,-0.9023 4.73509,-2.07977 6.62609,-4.469069 -0.71936,2.96073 -0.34549,5.350158 0.5564,7.970568 1.65655,4.813342 6.90067,7.373731 11.71399,5.717302 4.813243,-1.656411 7.373513,-6.901001 5.718003,-11.711991 -0.90226,-2.621819 -2.0787,-4.735869 -4.46712,-6.62677 2.9594,0.718569 5.34892,0.345819 7.96878,-0.55577 4.81335,-1.65643 7.37138,-6.90168 5.71481,-11.7154 -1.65635,-4.81307 -6.89993,-7.37162 -11.71328,-5.71519 -2.620293,0.90173 -4.734242,2.07795 -6.624912,4.46643 0.719119,-2.96065 0.347279,-5.35076 -0.554659,-7.97128 -1.656582,-4.81324 -6.901932,-7.37129 -11.715182,-5.71489 z"
       style="opacity:0.98000004;fill:#ee7a1a;fill-opacity:1;stroke:none;stroke-width:1.32291663;stroke-linecap:round;stroke-linejoin:round;stroke-miterlimit:4;stroke-dasharray:none;stroke-opacity:1;paint-order:normal"
       inkscape:export-xdpi="96"
       inkscape:export-ydpi="96"
       inkscape:export-filename="/home/medusa/Documents/Repositories/GitHub/locoroco/src/sprite.png" />
  </g>
</svg>
